<svg width="64" height="32" viewBox="0 0 64 32" fill="none" xmlns="http://www.w3.org/2000/svg">
<path d="M63.6413 2.70605C64.0012 2.35187 64.0058 1.77299 63.6516 1.4131C63.2975 1.0532 62.7186 1.04857 62.3587 1.40275L63.6413 2.70605ZM47.9064 18.1911L63.6413 2.70605L62.3587 1.40275L46.6238 16.8878L47.9064 18.1911Z" fill="black"/>
<path d="M23.99 1.65166C24.3499 1.29748 24.3546 0.718605 24.0004 0.358709C23.6462 -0.00118622 23.0673 -0.00581723 22.7074 0.348366L23.99 1.65166ZM13.1312 12.3381L23.99 1.65166L22.7074 0.348366L11.8486 11.0348L13.1312 12.3381Z" fill="black"/>
<path d="M23.976 17.9846C23.976 24.3292 18.8326 29.4725 12.488 29.4725C6.14334 29.4725 1 24.3292 1 17.9846C1 11.6399 6.14334 6.49658 12.488 6.49658C18.8326 6.49658 23.976 11.6399 23.976 17.9846Z" fill="white" stroke="black" stroke-width="2"/>
<ellipse cx="11.6138" cy="23.9788" rx="5.36983" ry="6.49375" transform="rotate(-8.5741 11.6138 23.9788)" fill="black"/>
<path d="M47.7031 17.9846C47.7031 24.3292 42.5598 29.4725 36.2152 29.4725C29.8705 29.4725 24.7272 24.3292 24.7272 17.9846C24.7272 11.6399 29.8705 6.49658 36.2152 6.49658C42.5598 6.49658 47.7031 11.6399 47.7031 17.9846Z" fill="white" stroke="black" stroke-width="2"/>
<ellipse cx="35.341" cy="23.9788" rx="5.36983" ry="6.49375" transform="rotate(-7.53032 35.341 23.9788)" fill="black"/>
</svg>
